<svg height="42" viewBox="0 0 512 512" width="42" xmlns="http://www.w3.org/2000/svg"><g id="filled_outline" data-name="filled outline"><path d="m440 224h-17.167a24 24 0 0 1 -21.466-13.267l-9.367-18.733h48z" fill="#ea9d2d"/><path d="m440 224h17.167a24 24 0 0 0 21.466-13.267l9.367-18.733h-48z" fill="#ea9d2d"/><path d="m440 160-10.626 15.938a32 32 0 0 0 -5.374 17.751v1.056a32 32 0 0 0 9.373 22.628l6.627 6.627 6.627-6.627a32 32 0 0 0 9.373-22.628v-1.056a32 32 0 0 0 -5.374-17.751z" fill="#fbb540"/><path d="m176 392 16-16 8-24h112l8 24 16 16 16 12.8-96 51.2-96-48z" fill="#5d70b3"/><path d="m252.34 432-4.03 20.15-88.31-44.15 16-16 3.54-3.54z" fill="#cf5252"/><path d="m352 404.8-84.43 45.03-3.57-17.83 70.09-41.91 1.91 1.91z" fill="#cf5252"/><path d="m192 203-17.19 5.6a36 36 0 0 0 -18.826 23.468l-19.984 79.932-64 40-24-8-24 8 8 40 119.069-37.209a21.994 21.994 0 0 0 13.115-11.16l27.816-55.631z" fill="#fdc9a6"/><path d="m320 203 17.19 5.595a36 36 0 0 1 18.826 23.468l19.984 79.937 64 40 24-8 24 8-8 40-119.069-37.209a21.994 21.994 0 0 1 -13.115-11.16l-27.816-55.631z" fill="#fdc9a6"/><path d="m280 64-2.789-13.943a32.413 32.413 0 0 0 -31.784-26.057 32.415 32.415 0 0 0 -22.92 9.494 104.154 104.154 0 0 0 -30.507 73.648v2.258a49.7 49.7 0 0 1 -22.133 41.356l-1.867 1.244 6.2 3.1a49.7 49.7 0 0 0 49.8-3.1z" fill="#683b0d"/><path d="m288 193.6-8-1.6v-32h-48v32l-8 1.6v38.4l32 24 32-24z" fill="#fdc9a6"/><path d="m280 160v8a40 40 0 0 1 -48 0v-8z" fill="#fdc9a6"/><path d="m288 193.6 32 9.4v37a39.448 39.448 0 0 1 -2.019 46.524l-13.981 17.476h-96l-13.981-17.476a39.448 39.448 0 0 1 -2.019-46.524v-37l32-9.4v38.4l32 24 32-24z" fill="#f1746a"/><path d="m208 304v13.614a64.01 64.01 0 0 1 -3.284 20.239l-4.716 14.147h112l-4.716-14.147a64.01 64.01 0 0 1 -3.284-20.239v-13.614z" fill="#fdc9a6"/><path d="m352 404.8-16-12.8-1.91-1.91-70.09 41.91h-11.66l-72.8-43.54-3.54 3.54-16 16 88.31 40h19.26z" fill="#4162aa"/><path d="m280 160v8a40 40 0 0 1 -48 0v-8z" fill="#f6bb92"/><path d="m72 232h-17.167a24 24 0 0 1 -21.466-13.267l-9.367-18.733h48z" fill="#029532"/><path d="m72 232h17.167a24 24 0 0 0 21.466-13.267l9.367-18.733h-48z" fill="#029532"/><path d="m272 480 140.021-57.188a30.653 30.653 0 0 0 12.272-42.3 30.654 30.654 0 0 0 -43.618-10.3l-116.675 69.788z" fill="#5d70b3"/><path d="m244.338 480-140.021-57.188a30.653 30.653 0 0 1 -12.272-42.3 30.654 30.654 0 0 1 43.618-10.3l116.675 69.788z" fill="#5d70b3"/><path d="m264 440-40 8-24-8-16 16 8 24h80z" fill="#fdc9a6"/><path d="m296 112v16a40 40 0 0 1 -40 40 40 40 0 0 1 -40-40v-32a39.964 39.964 0 0 1 1.993-12.5z" fill="#fdc9a6"/><path d="m296 96v16a120 120 0 0 1 -72-24l-6-4.5a40 40 0 0 1 78 12.5z" fill="#683b0d"/><path d="m72 168-10.626 15.938a32 32 0 0 0 -5.374 17.751v1.056a32 32 0 0 0 9.373 22.628l6.627 6.627 6.627-6.627a32 32 0 0 0 9.373-22.628v-1.056a32 32 0 0 0 -5.374-17.751z" fill="#02a437"/><path d="m24.155 393.569a8 8 0 0 0 10.231 6.067l47.157-14.736a38.677 38.677 0 0 0 19.031 44.984c.234.123.474.236.719.336l76.031 31.052 7.086 21.259a8 8 0 0 0 7.59 5.469h80a7.99 7.99 0 0 0 3.024-.594l140.022-57.187c.245-.1.485-.213.719-.336a38.682 38.682 0 0 0 19.432-43.5l42.417 13.256a8 8 0 0 0 10.231-6.067l8-40a8 8 0 0 0 -5.315-9.158l-24-8a7.992 7.992 0 0 0 -5.06 0l-20.425 6.808-58.067-36.292-19.2-76.8a43.948 43.948 0 0 0 -23.007-28.683c-.356-.178-52.769-16-52.769-16v-20.86a8.105 8.105 0 0 0 -.041-.813 47.885 47.885 0 0 0 16.039-35.774v-32a47.9 47.9 0 0 0 -16.713-36.356l-2.23-11.155a40.415 40.415 0 0 0 -68.208-20.652 111.423 111.423 0 0 0 -32.849 79.305v2.258a41.62 41.62 0 0 1 -18.57 34.7l-1.868 1.244a8 8 0 0 0 .86 13.812l6.2 3.1a57.814 57.814 0 0 0 51.726-.069q.807.8 1.651 1.552v21.7s-52.413 15.821-52.769 16a43.948 43.948 0 0 0 -23.007 28.683l-19.2 76.8-58.068 36.297-20.425-6.808a7.992 7.992 0 0 0 -5.06 0l-24 8a8 8 0 0 0 -5.315 9.158zm158.4 52.558-74.823-30.56a22.653 22.653 0 0 1 5.719-41.893 23.025 23.025 0 0 1 4.729-.61h.026a22.414 22.414 0 0 1 13.016 3.809c.108.072.218.142.331.209l101.8 60.888-8.843 1.769-21.985-7.328a8 8 0 0 0 -8.187 1.932zm-39.107-80.574 10-3.126a30.152 30.152 0 0 0 17.884-15.219l23.462-46.908 5.206 6.506v10.808a55.9 55.9 0 0 1 -2.874 17.709l-4.716 14.147-7.4 22.209-11.722 11.721zm54.318 106.447-4.613-13.839 9.008-9.008 19.309 6.436a8 8 0 0 0 4.1.256l32.155-6.431 4.517 22.586zm63.312-39.574-4.382.876c-.085-.055-.164-.115-.252-.168l-69-41.267 10.21-10.21a8.018 8.018 0 0 0 1.933-3.127l6.179-18.53h100.467l6.177 18.53a8.018 8.018 0 0 0 1.933 3.127l11.834 11.833zm38.616-92.043 1.206 3.617h-89.8l1.206-3.618a71.894 71.894 0 0 0 3.694-22.768v-5.614h80v5.614a71.905 71.905 0 0 0 3.694 22.769zm12.306-22.769v-10.808l5.206-6.507 23.454 46.909a30.151 30.151 0 0 0 17.885 15.219l12.853 4.016-31.062 18.579-13.344-13.343-7.4-22.209-4.716-14.146a55.909 55.909 0 0 1 -2.876-17.71zm107.435 84.419a22.459 22.459 0 0 1 -10.835 13.534l-130.656 53.364-4.992-24.963 111.83-66.886c.113-.067.223-.137.331-.209a22.653 22.653 0 0 1 34.322 25.16zm-91.435-164.333v-23.683l6.111 1.989a27.97 27.97 0 0 1 14.144 18l19.984 79.936a8 8 0 0 0 3.521 4.844l64 40a8 8 0 0 0 6.77.805l21.47-7.158 14.771 4.923-4.871 24.356-52.344-16.357a38.327 38.327 0 0 0 -26.225-8.2l-32.013-10a14.069 14.069 0 0 1 -8.346-7.1l-26.984-53.968a47.233 47.233 0 0 0 .012-48.387zm-40-109.7a32 32 0 0 1 -64 0v-30.189a129.032 129.032 0 0 0 64 21.908zm-9.569 71.845 1.569.314v27.841l-24 18-24-18v-27.841l1.569-.314a8 8 0 0 0 6.431-7.845v-18.752a47.888 47.888 0 0 0 32 0v18.752a8 8 0 0 0 6.431 7.845zm9.569-103.845v7.692a112.786 112.786 0 0 1 -59.2-22.092 7.953 7.953 0 0 0 -1.032-.646 31.994 31.994 0 0 1 60.232 15.046zm-80 0v32a47.7 47.7 0 0 0 4.833 20.971 41.848 41.848 0 0 1 -29.693 1.2 57.572 57.572 0 0 0 16.86-40.771v-2.257a95.526 95.526 0 0 1 28.163-67.991 24.406 24.406 0 0 1 40.749 10.627 47.973 47.973 0 0 0 -60.912 46.221zm-9.344 148.438a8 8 0 0 0 1.344-4.438v-31.012l16-4.7v27.712a8 8 0 0 0 3.2 6.4l32 24a8 8 0 0 0 9.6 0l32-24a8 8 0 0 0 3.2-6.4v-27.712l16 4.7v31.012a8 8 0 0 0 1.344 4.438 31.337 31.337 0 0 1 -1.61 37.088l-11.579 14.474h-88.31l-11.579-14.474a31.337 31.337 0 0 1 -1.61-37.088zm-150.656 107.995 21.47 7.156a8 8 0 0 0 6.77-.805l64-40a8 8 0 0 0 3.521-4.844l19.984-79.94a27.97 27.97 0 0 1 14.144-18l6.111-1.983v23.683a47.233 47.233 0 0 0 .013 48.389l-26.984 53.968a14.069 14.069 0 0 1 -8.345 7.1l-31.928 9.978a38.037 38.037 0 0 0 -18.881 6.027c-.44.06-59.774 18.552-59.774 18.552l-4.872-24.356z"/><path d="m488 184h-25.21a39.905 39.905 0 0 0 -5.508-12.5l-10.626-15.939a8 8 0 0 0 -13.312 0l-10.626 15.939a39.905 39.905 0 0 0 -5.508 12.5h-25.21a8 8 0 0 0 -7.155 11.578l9.366 18.733a31.825 31.825 0 0 0 28.622 17.689h34.334a31.825 31.825 0 0 0 28.622-17.689l9.366-18.733a8 8 0 0 0 -7.155-11.578zm-79.479 23.155-3.577-7.155h11.407a39.551 39.551 0 0 0 5.744 15.974 15.9 15.9 0 0 1 -13.574-8.819zm39.479-12.41a23.84 23.84 0 0 1 -7.03 16.971l-.97.97-.971-.971a23.839 23.839 0 0 1 -7.029-16.97v-1.056a23.933 23.933 0 0 1 4.03-13.313l3.97-5.954 3.97 5.954a23.933 23.933 0 0 1 4.03 13.313zm23.479 12.41a15.9 15.9 0 0 1 -13.574 8.819 39.551 39.551 0 0 0 5.744-15.974h11.407z"/><path d="m120 192h-25.21a39.905 39.905 0 0 0 -5.508-12.5l-10.626-15.938a8 8 0 0 0 -13.312 0l-10.626 15.938a39.905 39.905 0 0 0 -5.508 12.5h-25.21a8 8 0 0 0 -7.155 11.578l9.366 18.733a31.825 31.825 0 0 0 28.622 17.689h34.334a31.825 31.825 0 0 0 28.622-17.689l9.366-18.733a8 8 0 0 0 -7.155-11.578zm-79.479 23.155-3.577-7.155h11.407a39.536 39.536 0 0 0 5.749 15.974 15.9 15.9 0 0 1 -13.579-8.819zm39.479-12.41a23.84 23.84 0 0 1 -7.03 16.971l-.97.97-.971-.971a23.839 23.839 0 0 1 -7.029-16.97v-1.056a23.933 23.933 0 0 1 4.03-13.313l3.97-5.954 3.97 5.954a23.933 23.933 0 0 1 4.03 13.313zm23.479 12.41a15.9 15.9 0 0 1 -13.574 8.819 39.551 39.551 0 0 0 5.744-15.974h11.407z"/></g></svg>