<svg height="42" viewBox="0 0 512 512" width="42" xmlns="http://www.w3.org/2000/svg"><g id="flat"><path d="m440 224h-17.167a24 24 0 0 1 -21.466-13.267l-9.367-18.733h48z" fill="#ea9d2d"/><path d="m440 224h17.167a24 24 0 0 0 21.466-13.267l9.367-18.733h-48z" fill="#ea9d2d"/><path d="m440 160-10.626 15.938a32 32 0 0 0 -5.374 17.751v1.056a32 32 0 0 0 9.373 22.628l6.627 6.627 6.627-6.627a32 32 0 0 0 9.373-22.628v-1.056a32 32 0 0 0 -5.374-17.751z" fill="#fbb540"/><path d="m176 392 16-16 8-24h112l8 24 16 16 16 12.8-96 51.2-96-48z" fill="#5d70b3"/><path d="m252.34 432-4.03 20.15-88.31-44.15 16-16 3.54-3.54z" fill="#cf5252"/><path d="m352 404.8-84.43 45.03-3.57-17.83 70.09-41.91 1.91 1.91z" fill="#cf5252"/><path d="m192 203-17.19 5.6a36 36 0 0 0 -18.826 23.468l-19.984 79.932-64 40-24-8-24 8 8 40 119.069-37.209a21.994 21.994 0 0 0 13.115-11.16l27.816-55.631z" fill="#fdc9a6"/><path d="m320 203 17.19 5.595a36 36 0 0 1 18.826 23.468l19.984 79.937 64 40 24-8 24 8-8 40-119.069-37.209a21.994 21.994 0 0 1 -13.115-11.16l-27.816-55.631z" fill="#fdc9a6"/><path d="m280 64-2.789-13.943a32.413 32.413 0 0 0 -31.784-26.057 32.415 32.415 0 0 0 -22.92 9.494 104.154 104.154 0 0 0 -30.507 73.648v2.258a49.7 49.7 0 0 1 -22.133 41.356l-1.867 1.244 6.2 3.1a49.7 49.7 0 0 0 49.8-3.1z" fill="#683b0d"/><path d="m288 193.6-8-1.6v-32h-48v32l-8 1.6v38.4l32 24 32-24z" fill="#fdc9a6"/><path d="m280 160v8a40 40 0 0 1 -48 0v-8z" fill="#fdc9a6"/><path d="m288 193.6 32 9.4v37a39.448 39.448 0 0 1 -2.019 46.524l-13.981 17.476h-96l-13.981-17.476a39.448 39.448 0 0 1 -2.019-46.524v-37l32-9.4v38.4l32 24 32-24z" fill="#f1746a"/><path d="m208 304v13.614a64.01 64.01 0 0 1 -3.284 20.239l-4.716 14.147h112l-4.716-14.147a64.01 64.01 0 0 1 -3.284-20.239v-13.614z" fill="#fdc9a6"/><path d="m352 404.8-16-12.8-1.91-1.91-70.09 41.91h-11.66l-72.8-43.54-3.54 3.54-16 16 88.31 40h19.26z" fill="#4162aa"/><path d="m280 160v8a40 40 0 0 1 -48 0v-8z" fill="#f6bb92"/><path d="m72 232h-17.167a24 24 0 0 1 -21.466-13.267l-9.367-18.733h48z" fill="#029532"/><path d="m72 232h17.167a24 24 0 0 0 21.466-13.267l9.367-18.733h-48z" fill="#029532"/><path d="m272 480 140.021-57.188a30.653 30.653 0 0 0 12.272-42.3 30.654 30.654 0 0 0 -43.618-10.3l-116.675 69.788z" fill="#5d70b3"/><path d="m244.338 480-140.021-57.188a30.653 30.653 0 0 1 -12.272-42.3 30.654 30.654 0 0 1 43.618-10.3l116.675 69.788z" fill="#5d70b3"/><path d="m264 440-40 8-24-8-16 16 8 24h80z" fill="#fdc9a6"/><path d="m296 112v16a40 40 0 0 1 -40 40 40 40 0 0 1 -40-40v-32a39.964 39.964 0 0 1 1.993-12.5z" fill="#fdc9a6"/><path d="m296 96v16a120 120 0 0 1 -72-24l-6-4.5a40 40 0 0 1 78 12.5z" fill="#683b0d"/><path d="m72 168-10.626 15.938a32 32 0 0 0 -5.374 17.751v1.056a32 32 0 0 0 9.373 22.628l6.627 6.627 6.627-6.627a32 32 0 0 0 9.373-22.628v-1.056a32 32 0 0 0 -5.374-17.751z" fill="#02a437"/></g></svg>