<svg id="Capa_1" enable-background="new 0 0 495.301 495.301" height="42" viewBox="0 0 495.301 495.301" width="42" xmlns="http://www.w3.org/2000/svg"><g><path d="m281.764 296.519 122.456-134.36c34.772-38.152 33.411-96.899-3.09-133.4l-.322-.322c-37.731-37.731-98.905-37.731-136.636 0l-11.63 11.63c-3.108 3.108-8.145 3.113-11.259.011l-11.968-11.918c-37.753-37.6-98.82-37.538-136.497.139-36.687 36.687-37.848 95.801-2.63 133.901l124.38 134.557c18.141 19.625 49.193 19.515 67.196-.238z" fill="#fd8087"/><g><path d="m269.773 302.619-124.38-134.557c-35.218-38.1-34.057-97.213 2.63-133.9 14.312-14.312 32.001-23.182 50.503-26.636-35.11-14.72-77.133-7.803-105.708 20.772-36.687 36.687-37.849 95.801-2.63 133.9l124.38 134.557c15.134 16.372 39.248 18.998 57.28 7.956-.707-.673-1.403-1.365-2.075-2.092z" fill="#fe646f"/></g><g><g id="XMLID_582_"><g><path d="m356.926 381.01 100.444 35.078c3.179 1.11 3.624 5.423.738 7.158l-117.99 70.973c-2.474 1.488-5.579 1.438-8.004-.128l-75.788-48.96c-6.42-4.15-10.3-11.28-10.3-18.93v-209.011-109.236c0-8.916 6.416-16.764 15.249-17.976 4.593-.63 9.039.552 12.581 3.023 2.91 2.03 5.21 4.94 6.48 8.43l72.61 198.76c2.63 7.21 3.98 14.83 3.98 22.51z" fill="#ffdfcf"/><path d="m275.624 445.13c-6.42-4.15-10.3-11.28-10.3-18.93v-209.01-109.236c0-6.246 3.155-11.958 8.077-15.241-3.466-2.265-7.725-3.34-12.127-2.735-8.833 1.212-15.249 9.061-15.249 17.977v109.235 209.01c0 7.65 3.88 14.78 10.3 18.93l75.788 48.96c2.425 1.567 5.53 1.617 8.004.128l5.952-3.58z" fill="#ffcebf"/><path d="m246.026 107.954v109.236 209.01c0 7.65-3.88 14.78-10.3 18.93l-75.658 48.876c-2.505 1.618-5.712 1.669-8.267.132l-113.433-68.231c-4.644-2.793-3.928-9.735 1.188-11.521l95.57-33.375v-58.311c0-7.68 1.35-15.3 3.98-22.51l72.61-198.76c1.27-3.49 3.57-6.4 6.48-8.43 3.542-2.471 7.989-3.653 12.581-3.023 8.833 1.213 15.249 9.061 15.249 17.977z" fill="#ffdfcf"/></g><g><g><path d="m194.736 324.31c-4.142 0-7.5-3.357-7.5-7.5v-17.74c0-2.29.342-4.538 1.016-6.68l25.047-81.259c1.29-4.208 3.862-7.836 7.437-10.48 3.555-2.63 7.781-4.021 12.221-4.021 11.342 0 20.57 9.223 20.57 20.56 0 4.143-3.357 7.5-7.5 7.5-4.142 0-7.5-3.357-7.5-7.5 0-3.065-2.499-5.56-5.57-5.56-1.205 0-2.345.373-3.3 1.079-.68.503-1.583 1.402-2.02 2.828l-25.064 81.312c-.228.726-.337 1.459-.337 2.221v17.74c0 4.142-3.358 7.5-7.5 7.5z" fill="#ffcebf"/></g><g><path d="m297.316 324.31c-4.143 0-7.5-3.357-7.5-7.5v-17.74c0-.763-.108-1.495-.323-2.177l-25.074-81.344c-.44-1.438-1.344-2.337-2.023-2.84-.954-.706-2.095-1.079-3.299-1.079-3.071 0-5.57 2.494-5.57 5.56 0 4.143-3.357 7.5-7.5 7.5-4.142 0-7.5-3.357-7.5-7.5 0-11.337 9.228-20.56 20.57-20.56 4.438 0 8.664 1.39 12.22 4.02 3.575 2.646 6.147 6.273 7.44 10.493l25.057 81.288c.661 2.098 1.003 4.346 1.003 6.639v17.74c-.001 4.142-3.359 7.5-7.501 7.5z" fill="#ffcebf"/></g></g></g></g></g><g fill="#ffcebf"><path d="m230.777 89.977c-3.484-.478-6.882.091-9.867 1.47 6.186 2.907 10.315 9.359 10.315 16.506v109.236 98.13 110.881 21.837l4.501-2.907c6.42-4.15 10.3-11.28 10.3-18.93v-209.01-109.236c0-8.916-6.416-16.764-15.249-17.977z"/><path d="m62.489 439.452 87-30.383c5.132-1.792 8.57-6.634 8.57-12.071v-49.232c0-7.68 1.35-15.3 3.98-22.51l72.61-198.76c1.27-3.49 3.57-6.4 6.48-8.43 1.489-1.039 3.144-1.833 4.896-2.377v-7.736c0-8.916-6.416-16.765-15.249-17.977-4.592-.63-9.038.551-12.581 3.023-2.91 2.03-5.21 4.94-6.48 8.43l-72.61 198.76c-2.63 7.21-3.98 14.83-3.98 22.51v58.31l-95.57 33.375c-5.116 1.787-5.832 8.728-1.188 11.521l23.194 13.951c.292-.152.601-.289.928-.404z"/></g></svg>