<svg id="_x33_0" enable-background="new 0 0 64 64" height="32" viewBox="0 0 64 64" width="32" xmlns="http://www.w3.org/2000/svg"><g><path d="m51 44h-2v-2c0-1.103-.897-2-2-2h-2c-1.103 0-2 .897-2 2v2h-2c-1.103 0-2 .897-2 2v2c0 1.103.897 2 2 2h2v2c0 1.103.897 2 2 2h2c1.103 0 2-.897 2-2v-2h2c1.103 0 2-.897 2-2v-2c0-1.103-.897-2-2-2zm0 4h-4v4h-2v-4h-4v-2h4v-4h2v4l4-.001z"/><path d="m52.755 33c-2.09 0-4.078.641-5.755 1.816v-6.635c.669-1.854 2.221-3.296 3.036-3.955l.609.406c1.343.895 2.906 1.368 4.518 1.368 3.351 0 6.318-2.01 7.562-5.119l.506-1.263-1.937-1.291c-1.302-.868-2.818-1.327-4.385-1.327-2.761 0-5.357 1.47-6.778 3.838l-.88 1.467c-.396.288-1.329 1.017-2.251 2.085v-10.209c.711-1.968 2.417-3.472 3.177-4.068l1.52.507c.757.252 1.545.38 2.343.38 2.823 0 5.362-1.569 6.626-4.096l.623-1.247-2.449-1.632c-1.006-.671-2.176-1.025-3.385-1.025-2.51 0-4.734 1.506-5.667 3.836l-.608 1.521c-.451.333-1.406 1.097-2.325 2.202-.275-1.5-.936-2.894-1.93-4.03-.028-.032-.042-.046-.065-.071l-.648-1.621c-.933-2.331-3.157-3.837-5.667-3.837-1.209 0-2.379.354-3.385 1.025l-2.449 1.632.623 1.248c1.264 2.526 3.803 4.095 6.626 4.095.798 0 1.586-.128 2.343-.38l1.35-.45c.858 1.119 1.347 2.507 1.347 3.977v6.472c-.081-.095-.149-.172-.197-.225l-.934-1.557c-1.421-2.367-4.017-3.837-6.778-3.837-1.566 0-3.083.459-4.385 1.328l-1.937 1.291.506 1.262c1.243 3.11 4.211 5.12 7.562 5.12 1.612 0 3.175-.473 4.518-1.368l.453-.302c.32.424.75 1.066 1.193 1.918v12.568c-1.678-1.176-3.666-1.817-5.756-1.817-2.296 0-4.483.781-6.245 2.179v-.179c0-2.755-1.604-5.163-4-6.266v-15.734c0-6.617-5.383-12-12-12s-12 5.383-12 12v15.734c-2.396 1.103-4 3.511-4 6.266v3h2v-3c0-2.406 1.723-4.44 4.096-4.835l5.397-.9c1.453-.243 2.507-1.487 2.507-2.959v-.569c.641.166 1.308.263 2 .263s1.359-.097 2-.263v.569c0 1.473 1.054 2.717 2.507 2.959l5.397.9c2.373.395 4.096 2.429 4.096 4.835v2.296c-1.293 1.826-2 4.021-2 6.269v.635c0 .607.059 1.206.146 1.8h-2.528l-2.688-5.375-2.776 6.477-4.229-13.745-5 19-3.187-10.357h-7.738v2h6.262l4.813 15.644 5-19 3.771 12.255 3.224-7.523 1.312 2.624h4.231c.789 2.475 2.314 4.695 4.428 6.28l11.959 8.97 11.96-8.97c3.156-2.366 5.04-6.135 5.04-10.08v-.635c0-2.532-.893-4.999-2.514-6.944-1.918-2.301-4.735-3.621-7.731-3.621zm-.909-11.133c1.061-1.768 3.001-2.867 5.063-2.867 1.17 0 2.303.343 3.275.992l.581.387c-.991 2.208-3.161 3.621-5.602 3.621-1.217 0-2.396-.357-3.408-1.032l-.407-.271zm-.2-14.287c.626-1.567 2.122-2.58 3.809-2.58.813 0 1.6.238 2.275.689l.971.647c-.97 1.652-2.723 2.664-4.661 2.664-.583 0-1.158-.093-1.71-.277l-1.008-.336zm-40.646 10.42v-2.116c0-1.527.684-2.95 1.877-3.904l1.386-1.109c1.06 1.441 2.702 2.431 4.613 2.623l3.224.322c.514.051.9.479.9.995v3.189c0 3.309-2.691 6-6 6s-6-2.691-6-6zm10.835 9.292c-.483-.081-.835-.496-.835-.986v-1.388c2.387-1.386 4-3.964 4-6.918v-3.19c0-1.547-1.161-2.831-2.701-2.985l-3.224-.322c-2.323-.233-4.075-2.169-4.075-4.503h-2c0 .718.115 1.41.328 2.057l-1.701 1.361c-1.669 1.335-2.627 3.328-2.627 5.466v2.116c0 2.953 1.613 5.532 4 6.918v1.388c0 .491-.352.906-.835.986l-5.165.861v-15.153c0-5.514 4.486-10 10-10s10 4.486 10 10v15.153zm19.835-20.569c-.552.184-1.127.277-1.71.277-1.938 0-3.691-1.012-4.661-2.664l.971-.647c.675-.451 1.462-.689 2.275-.689 1.688 0 3.183 1.013 3.81 2.58l.323.807zm.575 12.245c-1.013.675-2.191 1.032-3.408 1.032-2.439 0-4.61-1.413-5.603-3.621l.581-.387c.973-.649 2.106-.992 3.276-.992 2.063 0 4.002 1.099 5.063 2.866l.498.831zm18.755 25.232c0 3.319-1.585 6.489-4.239 8.48l-10.761 8.07-10.761-8.07c-2.654-1.991-4.239-5.161-4.239-8.48v-.635c0-2.065.729-4.077 2.051-5.664 1.536-1.843 3.794-2.901 6.194-2.901 2.154 0 4.18.839 5.702 2.361l1.053 1.054 1.052-1.053c1.523-1.523 3.549-2.362 5.703-2.362 2.4 0 4.658 1.058 6.194 2.901 1.322 1.587 2.051 3.599 2.051 5.664z"/></g></svg>